# xmcd CD database file
#
# Track frame offsets:
#	150
#	40447
#	68850
#	102650
#	134211
#	163468
#	189234
#	225430
#
# Disc length: 3657 seconds
#
# Revision: 0
# Processed by: cddbd v1.5.2PL0 Copyright (c) Steve Scherf et al.
# Submitted via: CDex 1.51
#
DISCID=770e4708
DTITLE=Kitaro - Sacred Journey Of Ku-Kai, Vol. 3
DYEAR=2007
DGENRE=New Age
TTITLE0=Sky And Ocean
TTITLE1=Crystal Winds
TTITLE2=After The Rain
TTITLE3=Sacred Fountain
TTITLE4=Winds Blow Over The Hill
TTITLE5=Into The Forest
TTITLE6=Voice In Blue
TTITLE7=Circle Dance
EXTD=YEAR: 2007
EXTT0=
EXTT1=
EXTT2=
EXTT3=
EXTT4=
EXTT5=
EXTT6=
EXTT7=
PLAYORDER=
